<svg width="868" height="232" viewBox="0 0 868 232" fill="none" xmlns="http://www.w3.org/2000/svg">
<rect x="19" width="3" height="187" fill="#294146"/>
<rect x="102" width="3" height="187" fill="#D9D9D9"/>
<rect x="184" width="3" height="187" fill="#D9D9D9"/>
<rect x="267" width="3" height="187" fill="#D9D9D9"/>
<rect x="350" width="3" height="187" fill="#D9D9D9"/>
<rect x="433" width="3" height="187" fill="#D9D9D9"/>
<rect x="515" width="3" height="187" fill="#D9D9D9"/>
<rect x="598" width="3" height="187" fill="#D9D9D9"/>
<rect x="681" width="3" height="187" fill="#D9D9D9"/>
<rect x="764" width="3" height="187" fill="#D9D9D9"/>
<rect x="846" width="3" height="187" fill="#D9D9D9"/>
<path d="M14.4568 213.882C14.4568 209.328 15.6008 205.852 20.0008 205.852C24.3788 205.852 25.5228 209.328 25.5228 213.882C25.5228 218.502 24.3788 222 20.0008 222C15.6008 222 14.4568 218.502 14.4568 213.882ZM23.5428 213.882C23.5428 210.582 23.1248 207.678 20.0008 207.678C16.8548 207.678 16.4368 210.582 16.4368 213.882C16.4368 217.314 16.8548 220.174 20.0008 220.174C23.1248 220.174 23.5428 217.314 23.5428 213.882Z" fill="#294146"/>
<path d="M173.888 221.824V220.394C178.068 217.028 182.028 213.86 182.028 210.604C182.028 208.844 181.258 207.524 179.102 207.524C177.034 207.524 175.978 208.954 175.89 210.956H173.954C174.086 207.568 176.22 205.808 179.08 205.808C182.072 205.808 184.008 207.568 184.008 210.516C184.008 214.476 179.74 217.842 176.902 220.152H184.47V221.824H173.888ZM186.784 213.882C186.784 209.328 187.928 205.852 192.328 205.852C196.706 205.852 197.85 209.328 197.85 213.882C197.85 218.502 196.706 222 192.328 222C187.928 222 186.784 218.502 186.784 213.882ZM195.87 213.882C195.87 210.582 195.452 207.678 192.328 207.678C189.182 207.678 188.764 210.582 188.764 213.882C188.764 217.314 189.182 220.174 192.328 220.174C195.452 220.174 195.87 217.314 195.87 213.882Z" fill="#294146"/>
<path d="M347.195 222V218.458H339.055V216.94L346.777 206.248H349.175V216.72H351.375V218.458H349.175V222H347.195ZM341.365 216.72H347.283V208.338L341.365 216.72ZM353.375 213.882C353.375 209.328 354.519 205.852 358.919 205.852C363.297 205.852 364.441 209.328 364.441 213.882C364.441 218.502 363.297 222 358.919 222C354.519 222 353.375 218.502 353.375 213.882ZM362.461 213.882C362.461 210.582 362.043 207.678 358.919 207.678C355.773 207.678 355.355 210.582 355.355 213.882C355.355 217.314 355.773 220.174 358.919 220.174C362.043 220.174 362.461 217.314 362.461 213.882Z" fill="#294146"/>
<path d="M515.188 209.878H513.34C513.032 208.338 512.13 207.436 510.326 207.436C507.796 207.436 506.432 209.174 506.454 213.904C507.136 212.342 508.874 211.462 510.766 211.462C513.736 211.462 515.738 213.42 515.738 216.764C515.738 219.668 514.022 222.044 510.546 222.044C505.838 222.044 504.716 218.656 504.716 213.838C504.716 208.844 506.322 205.764 510.348 205.764C513.384 205.764 514.924 207.656 515.188 209.878ZM510.348 213.156C508.522 213.156 506.696 214.234 506.696 216.61C506.696 218.722 507.928 220.372 510.436 220.372C512.504 220.372 513.802 218.986 513.802 216.83C513.802 214.586 512.636 213.156 510.348 213.156ZM518.439 213.882C518.439 209.328 519.583 205.852 523.983 205.852C528.361 205.852 529.505 209.328 529.505 213.882C529.505 218.502 528.361 222 523.983 222C519.583 222 518.439 218.502 518.439 213.882ZM527.525 213.882C527.525 210.582 527.107 207.678 523.983 207.678C520.837 207.678 520.419 210.582 520.419 213.882C520.419 217.314 520.837 220.174 523.983 220.174C527.107 220.174 527.525 217.314 527.525 213.882Z" fill="#294146"/>
<path d="M673.421 213.728C671.793 213.09 670.869 211.858 670.869 210.076C670.869 207.744 672.629 205.852 676.083 205.852C679.537 205.852 681.319 207.766 681.319 210.076C681.319 211.792 680.329 213.112 678.767 213.728C680.571 214.278 681.737 215.73 681.737 217.71C681.737 220.592 679.449 222.44 676.083 222.44C672.739 222.44 670.473 220.592 670.473 217.71C670.473 215.708 671.639 214.256 673.421 213.728ZM676.083 213.068C678.041 213.068 679.383 211.968 679.383 210.318C679.383 208.492 678.085 207.524 676.083 207.524C674.125 207.524 672.805 208.47 672.805 210.34C672.805 211.99 674.147 213.068 676.083 213.068ZM676.083 214.608C674.037 214.608 672.387 215.532 672.387 217.644C672.387 219.514 673.817 220.768 676.083 220.768C678.349 220.768 679.757 219.492 679.757 217.644C679.757 215.598 678.173 214.608 676.083 214.608ZM684.396 213.882C684.396 209.328 685.54 205.852 689.94 205.852C694.318 205.852 695.462 209.328 695.462 213.882C695.462 218.502 694.318 222 689.94 222C685.54 222 684.396 218.502 684.396 213.882ZM693.482 213.882C693.482 210.582 693.064 207.678 689.94 207.678C686.794 207.678 686.376 210.582 686.376 213.882C686.376 217.314 686.794 220.174 689.94 220.174C693.064 220.174 693.482 217.314 693.482 213.882Z" fill="#294146"/>
<path d="M833.61 222V207.92H831.498V206.094H835.634V222H833.61ZM839.073 213.882C839.073 209.328 840.217 205.852 844.617 205.852C848.995 205.852 850.139 209.328 850.139 213.882C850.139 218.502 848.995 222 844.617 222C840.217 222 839.073 218.502 839.073 213.882ZM848.159 213.882C848.159 210.582 847.741 207.678 844.617 207.678C841.471 207.678 841.053 210.582 841.053 213.882C841.053 217.314 841.471 220.174 844.617 220.174C847.741 220.174 848.159 217.314 848.159 213.882ZM852.887 213.882C852.887 209.328 854.031 205.852 858.431 205.852C862.809 205.852 863.953 209.328 863.953 213.882C863.953 218.502 862.809 222 858.431 222C854.031 222 852.887 218.502 852.887 213.882ZM861.973 213.882C861.973 210.582 861.555 207.678 858.431 207.678C855.285 207.678 854.867 210.582 854.867 213.882C854.867 217.314 855.285 220.174 858.431 220.174C861.555 220.174 861.973 217.314 861.973 213.882Z" fill="#294146"/>
</svg>
