<svg width="20" height="19" viewBox="0 0 20 19" fill="none" xmlns="http://www.w3.org/2000/svg">
<path d="M6.875 0.75C7.91016 0.75 8.75 1.58945 8.75 2.625V7C8.75 8.03516 7.91016 8.875 6.875 8.875H1.875C0.839453 8.875 0 8.03516 0 7V2.625C0 1.58945 0.839453 0.75 1.875 0.75H6.875ZM6.875 2.625H1.875V7H6.875V2.625ZM6.875 10.125C7.91016 10.125 8.75 10.9648 8.75 12V16.375C8.75 17.4102 7.91016 18.25 6.875 18.25H1.875C0.839453 18.25 0 17.4102 0 16.375V12C0 10.9648 0.839453 10.125 1.875 10.125H6.875ZM6.875 12H1.875V16.375H6.875V12ZM10 2.625C10 1.58945 10.8398 0.75 11.875 0.75H18.125C19.1602 0.75 20 1.58945 20 2.625V3.875C20 4.91016 19.1602 5.75 18.125 5.75H11.875C10.8398 5.75 10 4.91016 10 3.875V2.625ZM11.875 3.875H18.125V2.625H11.875V3.875ZM18.125 7C19.1602 7 20 7.83984 20 8.875V10.125C20 11.1602 19.1602 12 18.125 12H11.875C10.8398 12 10 11.1602 10 10.125V8.875C10 7.83984 10.8398 7 11.875 7H18.125ZM18.125 8.875H11.875V10.125H18.125V8.875ZM10 15.125C10 14.0898 10.8398 13.25 11.875 13.25H18.125C19.1602 13.25 20 14.0898 20 15.125V16.375C20 17.4102 19.1602 18.25 18.125 18.25H11.875C10.8398 18.25 10 17.4102 10 16.375V15.125ZM11.875 16.375H18.125V15.125H11.875V16.375Z" fill="white"/>
</svg>
