<svg width="78" height="68" viewBox="0 0 78 68" fill="none" xmlns="http://www.w3.org/2000/svg">
<path d="M7.3125 57.0714C7.3125 59.0902 8.9502 60.7143 10.9688 60.7143H74.3438C76.3699 60.7143 78 62.3384 78 64.3571C78 66.3759 76.3699 68 74.3438 68H10.9688C4.91156 68 0 63.1125 0 57.0714V3.64286C0 1.6317 1.6377 0 3.65625 0C5.6748 0 7.3125 1.6317 7.3125 3.64286V57.0714ZM52.4062 14.5714H69.4688C71.4949 14.5714 73.125 16.1955 73.125 18.2143V35.2143C73.125 37.233 71.4949 38.8571 69.4688 38.8571C67.4426 38.8571 65.8125 37.233 65.8125 35.2143V27.0027L48.7652 43.7295C47.4703 45.2777 45.1547 45.2777 43.7227 43.7295L31.5504 31.8598L21.9527 41.3009C20.6578 42.8491 18.3422 42.8491 16.9102 41.3009C15.4934 40.0107 15.4934 37.7036 16.9102 36.2768L29.0977 24.1339C30.5297 22.7223 32.8453 22.7223 34.1402 24.1339L46.3125 36.1402L60.648 21.8571H52.4062C50.3801 21.8571 48.75 20.233 48.75 18.2143C48.75 16.1955 50.3801 14.5714 52.4062 14.5714Z" fill="white"/>
</svg>
