<svg width="84" height="84" viewBox="0 0 84 84" fill="none" xmlns="http://www.w3.org/2000/svg">
<path d="M0 21C0 15.2004 4.70039 10.5 10.5 10.5H73.5C79.2914 10.5 84 15.2004 84 21V63C84 68.7914 79.2914 73.5 73.5 73.5H10.5C4.70039 73.5 0 68.7914 0 63V21ZM7.875 21V24.6258L36.1758 47.857C39.5555 50.6461 44.4445 50.6461 47.8242 47.857L76.125 24.6258V20.8523C76.125 19.5562 74.9437 18.2273 73.5 18.2273H10.5C9.04969 18.2273 7.875 19.5562 7.875 20.8523V21ZM7.875 34.8141V63C7.875 64.4437 9.04969 65.625 10.5 65.625H73.5C74.9437 65.625 76.125 64.4437 76.125 63V34.8141L52.8281 53.9437C46.5281 59.1117 37.4719 59.1117 31.0242 53.9437L7.875 34.8141Z" fill="white"/>
</svg>
