<svg width="66" height="75" viewBox="0 0 66 75" fill="none" xmlns="http://www.w3.org/2000/svg">
<g clip-path="url(#clip0_7_3604)">
<path d="M44.7857 18.75C44.7857 15.642 43.544 12.6613 41.3338 10.4636C39.1235 8.2659 36.1258 7.03125 33 7.03125C29.8742 7.03125 26.8765 8.2659 24.6662 10.4636C22.456 12.6613 21.2143 15.642 21.2143 18.75C21.2143 21.858 22.456 24.8387 24.6662 27.0364C26.8765 29.2341 29.8742 30.4688 33 30.4688C36.1258 30.4688 39.1235 29.2341 41.3338 27.0364C43.544 24.8387 44.7857 21.858 44.7857 18.75ZM14.1429 18.75C14.1429 13.7772 16.1296 9.00805 19.666 5.49175C23.2024 1.97544 27.9988 0 33 0C38.0012 0 42.7976 1.97544 46.334 5.49175C49.8704 9.00805 51.8571 13.7772 51.8571 18.75C51.8571 23.7228 49.8704 28.4919 46.334 32.0083C42.7976 35.5246 38.0012 37.5 33 37.5C27.9988 37.5 23.2024 35.5246 19.666 32.0083C16.1296 28.4919 14.1429 23.7228 14.1429 18.75ZM7.26295 67.9688H58.7371C57.4259 58.6963 49.4116 51.5625 39.7326 51.5625H26.2674C16.5884 51.5625 8.57411 58.6963 7.26295 67.9688ZM0 70.6494C0 56.2207 11.7563 44.5312 26.2674 44.5312H39.7326C54.2438 44.5312 66 56.2207 66 70.6494C66 73.0518 64.0406 75 61.6246 75H4.37545C1.95938 75 0 73.0518 0 70.6494Z" fill="white"/>
</g>
<defs>
<clipPath id="clip0_7_3604">
<rect width="66" height="75" fill="white"/>
</clipPath>
</defs>
</svg>
